<svg width="19" height="18" viewBox="0 0 19 18" fill="none" xmlns="http://www.w3.org/2000/svg">
<path fill-rule="evenodd" clip-rule="evenodd" d="M12.3655 5.87464L17.2055 6.29464C18.0855 6.36464 18.4355 7.46464 17.7655 8.04464L14.0955 11.2246L15.1955 15.9546C15.3955 16.8146 14.4655 17.4946 13.7055 17.0346L9.55549 14.5246L5.40549 17.0246C4.64549 17.4846 3.71549 16.8046 3.91549 15.9446L5.01549 11.2246L1.34549 8.04464C0.675493 7.46464 1.03549 6.36464 1.91549 6.29464L6.74549 5.88464L8.63549 1.42464C8.97549 0.614639 10.1355 0.614639 10.4755 1.42464L12.3655 5.87464ZM9.59004 3.42008L7.88004 7.46008L3.50004 7.84008L6.82004 10.7201L5.82004 15.0001L9.59004 12.7201L13.36 15.0001L12.36 10.7201L15.68 7.84008L11.3 7.46008L9.59004 3.42008Z" fill="#0bc4fa"/>
</svg>
